<svg xmlns="http://www.w3.org/2000/svg" viewBox="0 0 900 620" role="img" aria-labelledby="title desc">
  <title id="title">RootFS audiences</title>
  <desc id="desc">Four audiences reuse one shared RootFS environment.</desc>
  <rect width="900" height="620" rx="28" fill="#fffdf8"/>
  <circle cx="450" cy="305" r="118" fill="#2f6f9f"/>
  <rect x="390" y="245" width="120" height="120" rx="20" fill="#fffdf8"/>
  <path d="M420 285 H480 M420 320 H462" stroke="#2f6f9f" stroke-width="14" stroke-linecap="round"/>
  <text x="391" y="410" fill="#fffdf8" font-family="ui-sans-serif, system-ui, sans-serif" font-size="30" font-weight="800">RootFS</text>
  <g font-family="ui-sans-serif, system-ui, sans-serif" font-weight="800" fill="#1d2a2f">
    <g transform="translate(70 85)">
      <rect width="245" height="130" rx="24" fill="#ffffff" stroke="#d6e4df" stroke-width="4"/>
      <circle cx="55" cy="58" r="25" fill="#2a8f82" opacity=".85"/>
      <text x="96" y="55" font-size="25">Instructor</text>
      <text x="96" y="88" font-size="17" fill="#61717a" font-weight="600">same stack for students</text>
    </g>
    <g transform="translate(585 85)">
      <rect width="245" height="130" rx="24" fill="#ffffff" stroke="#d6e4df" stroke-width="4"/>
      <circle cx="55" cy="58" r="25" fill="#d49b39" opacity=".9"/>
      <text x="96" y="55" font-size="25">Researcher</text>
      <text x="96" y="88" font-size="17" fill="#61717a" font-weight="600">consistent new projects</text>
    </g>
    <g transform="translate(70 405)">
      <rect width="245" height="130" rx="24" fill="#ffffff" stroke="#d6e4df" stroke-width="4"/>
      <circle cx="55" cy="58" r="25" fill="#c66f62" opacity=".9"/>
      <text x="96" y="55" font-size="25">Admin</text>
      <text x="96" y="88" font-size="17" fill="#61717a" font-weight="600">official environments</text>
    </g>
    <g transform="translate(585 405)">
      <rect width="245" height="130" rx="24" fill="#ffffff" stroke="#d6e4df" stroke-width="4"/>
      <circle cx="55" cy="58" r="25" fill="#2f6f9f" opacity=".9"/>
      <text x="96" y="55" font-size="25">Author</text>
      <text x="96" y="88" font-size="17" fill="#61717a" font-weight="600">public demo image</text>
    </g>
  </g>
  <g stroke="#2a8f82" stroke-width="7" stroke-linecap="round" fill="none" opacity=".65">
    <path d="M315 150 C390 165 415 210 430 235"/>
    <path d="M585 150 C510 165 485 210 470 235"/>
    <path d="M315 470 C390 450 420 400 435 375"/>
    <path d="M585 470 C510 450 480 400 465 375"/>
  </g>
</svg>

