<svg xmlns="http://www.w3.org/2000/svg" viewBox="0 0 720 480" role="img">
  <rect width="720" height="480" rx="28" fill="#fffdf8"/>
  <rect x="236" y="72" width="248" height="300" rx="28" fill="#ffffff" stroke="#26383f" stroke-opacity=".12" stroke-width="3"/>
  <rect x="270" y="118" width="150" height="28" rx="14" fill="#2f6f9f"/>
  <rect x="270" y="170" width="172" height="48" rx="18" fill="#eef7f3"/>
  <rect x="304" y="242" width="150" height="48" rx="18" fill="#f7efe2"/>
  <rect x="270" y="314" width="126" height="28" rx="14" fill="#dcefe8"/>
  <g fill="#2a8f82">
    <circle cx="118" cy="138" r="28"/>
    <circle cx="116" cy="240" r="28"/>
    <circle cx="596" cy="174" r="28"/>
    <circle cx="594" cy="286" r="28"/>
  </g>
  <g stroke="#2f6f9f" stroke-width="8" stroke-linecap="round" fill="none">
    <path d="M146 146c34 10 54 26 80 56"/>
    <path d="M144 242c36-2 58 10 86 34"/>
    <path d="M568 176c-34 8-58 24-84 54"/>
    <path d="M568 286c-34 2-58-12-82-34"/>
  </g>
  <rect x="70" y="332" width="190" height="62" rx="20" fill="#f4dfb5"/>
  <text x="101" y="369" fill="#26383f" font-family="ui-sans-serif, system-ui" font-size="17" font-weight="900">own plan or key</text>
  <rect x="460" y="356" width="190" height="62" rx="20" fill="#f3dfdc"/>
  <text x="496" y="393" fill="#26383f" font-family="ui-sans-serif, system-ui" font-size="17" font-weight="900">project secrets</text>
</svg>
