<svg xmlns="http://www.w3.org/2000/svg" viewBox="0 0 960 540" role="img">
  <rect width="960" height="540" rx="34" fill="#fbf4e8"/>
  <circle cx="124" cy="88" r="64" fill="#dcefe8"/>
  <circle cx="826" cy="100" r="76" fill="#f4dfb5"/>
  <rect x="82" y="70" width="796" height="400" rx="28" fill="#ffffff" stroke="#22343c" stroke-opacity=".12" stroke-width="3"/>
  <rect x="82" y="70" width="796" height="58" rx="28" fill="#24363e"/>
  <circle cx="122" cy="100" r="9" fill="#c96f65"/>
  <circle cx="150" cy="100" r="9" fill="#d5a143"/>
  <circle cx="178" cy="100" r="9" fill="#2a8f82"/>
  <text x="222" y="107" fill="#f6fbf8" font-family="ui-sans-serif, system-ui" font-size="22" font-weight="800">Codex chatroom</text>
  <rect x="116" y="158" width="510" height="52" rx="17" fill="#eef7f3"/>
  <text x="142" y="191" fill="#26383f" font-family="ui-sans-serif, system-ui" font-size="19" font-weight="700">Please inspect the failing build and patch the smallest cause.</text>
  <rect x="208" y="232" width="520" height="74" rx="20" fill="#f7efe2" stroke="#d49b39" stroke-opacity=".45" stroke-width="3"/>
  <text x="234" y="262" fill="#26383f" font-family="ui-sans-serif, system-ui" font-size="18" font-weight="800">Codex is working</text>
  <text x="234" y="287" fill="#61717a" font-family="ui-sans-serif, system-ui" font-size="16">durable logs, tools, images, terminal, files</text>
  <rect x="140" y="336" width="338" height="56" rx="17" fill="#eef2f6"/>
  <text x="166" y="371" fill="#26383f" font-family="ui-sans-serif, system-ui" font-size="18" font-weight="700">The test passes. I left a note.</text>
  <rect x="646" y="154" width="178" height="268" rx="22" fill="#f8fbf9" stroke="#22343c" stroke-opacity=".12" stroke-width="3"/>
  <text x="674" y="190" fill="#26383f" font-family="ui-sans-serif, system-ui" font-size="17" font-weight="800">Project state</text>
  <rect x="674" y="216" width="92" height="22" rx="11" fill="#dcefe8"/>
  <rect x="674" y="252" width="116" height="22" rx="11" fill="#f4dfb5"/>
  <rect x="674" y="288" width="78" height="22" rx="11" fill="#e7edf4"/>
  <rect x="674" y="324" width="128" height="22" rx="11" fill="#f3dfdc"/>
  <path d="M674 374h110" stroke="#2f6f9f" stroke-width="8" stroke-linecap="round"/>
  <path d="M674 398h70" stroke="#2a8f82" stroke-width="8" stroke-linecap="round"/>
  <g fill="#2f6f9f">
    <circle cx="142" cy="440" r="18"/>
    <circle cx="190" cy="440" r="18"/>
    <circle cx="238" cy="440" r="18"/>
  </g>
  <path d="M512 420c54-3 85-20 114-54" fill="none" stroke="#c66f62" stroke-width="8" stroke-linecap="round"/>
  <path d="M614 366l16-4-4 16" fill="none" stroke="#c66f62" stroke-width="8" stroke-linecap="round"/>
</svg>
