<svg xmlns="http://www.w3.org/2000/svg" viewBox="0 0 720 480" role="img">
  <rect width="720" height="480" rx="28" fill="#fbf4e8"/>
  <rect x="72" y="54" width="576" height="356" rx="26" fill="#ffffff" stroke="#26383f" stroke-opacity=".12" stroke-width="3"/>
  <text x="108" y="104" fill="#26383f" font-family="ui-sans-serif, system-ui" font-size="25" font-weight="900">Prompt editor</text>
  <rect x="108" y="130" width="205" height="30" rx="15" fill="#dcefe8"/>
  <text x="128" y="151" fill="#26383f" font-family="ui-sans-serif, system-ui" font-size="15" font-weight="800">Markdown</text>
  <rect x="334" y="130" width="150" height="30" rx="15" fill="#f4dfb5"/>
  <text x="354" y="151" fill="#26383f" font-family="ui-sans-serif, system-ui" font-size="15" font-weight="800">Image</text>
  <rect x="108" y="184" width="232" height="80" rx="16" fill="#213139"/>
  <path d="M134 213h120M134 238h78" stroke="#f8fbf9" stroke-width="10" stroke-linecap="round"/>
  <rect x="370" y="184" width="188" height="112" rx="18" fill="#eef2f6"/>
  <circle cx="425" cy="226" r="24" fill="#d49b39"/>
  <path d="M398 270l48-38 42 34 24-18 22 22" fill="none" stroke="#2f6f9f" stroke-width="9" stroke-linecap="round" stroke-linejoin="round"/>
  <rect x="108" y="292" width="372" height="54" rx="16" fill="#fffaf1" stroke="#d49b39" stroke-opacity=".42" stroke-width="3"/>
  <text x="132" y="326" fill="#26383f" font-family="ui-sans-serif, system-ui" font-size="17" font-weight="700">Quote the error, include the screenshot, name the files.</text>
  <rect x="478" y="342" width="116" height="44" rx="22" fill="#2a8f82"/>
  <text x="512" y="371" fill="#ffffff" font-family="ui-sans-serif, system-ui" font-size="17" font-weight="900">Send</text>
</svg>
