<svg xmlns="http://www.w3.org/2000/svg" viewBox="0 0 720 480" role="img">
  <rect width="720" height="480" rx="28" fill="#fffaf1"/>
  <path d="M80 152c86-70 176-68 250 0s160 68 252 0" fill="none" stroke="#2f6f9f" stroke-width="12" stroke-linecap="round"/>
  <path d="M80 220c86-70 176-68 250 0s160 68 252 0" fill="none" stroke="#d49b39" stroke-width="12" stroke-linecap="round"/>
  <rect x="86" y="72" width="188" height="76" rx="24" fill="#ffffff" stroke="#26383f" stroke-opacity=".12" stroke-width="3"/>
  <text x="124" y="120" fill="#26383f" font-family="ui-sans-serif, system-ui" font-size="24" font-weight="900">flow</text>
  <rect x="444" y="300" width="198" height="94" rx="24" fill="#ffffff" stroke="#26383f" stroke-opacity=".12" stroke-width="3"/>
  <text x="482" y="356" fill="#26383f" font-family="ui-sans-serif, system-ui" font-size="24" font-weight="900">review</text>
  <g fill="#2a8f82">
    <circle cx="124" cy="284" r="12"/>
    <circle cx="164" cy="284" r="12"/>
    <circle cx="204" cy="284" r="12"/>
  </g>
  <path d="M346 334h84" stroke="#c66f62" stroke-width="9" stroke-linecap="round"/>
  <path d="M430 334l-16-13M430 334l-16 13" stroke="#c66f62" stroke-width="9" stroke-linecap="round"/>
</svg>
