<svg xmlns="http://www.w3.org/2000/svg" viewBox="0 0 720 480" role="img">
  <rect width="720" height="480" rx="28" fill="#fffaf1"/>
  <rect x="70" y="60" width="580" height="346" rx="28" fill="#ffffff" stroke="#26383f" stroke-opacity=".12" stroke-width="3"/>
  <rect x="110" y="104" width="210" height="42" rx="21" fill="#eef7f3"/>
  <circle cx="138" cy="125" r="13" fill="none" stroke="#2f6f9f" stroke-width="6"/>
  <path d="M148 135l20 20" stroke="#2f6f9f" stroke-width="6" stroke-linecap="round"/>
  <text x="184" y="132" fill="#26383f" font-family="ui-sans-serif, system-ui" font-size="17" font-weight="900">Find in diff</text>
  <rect x="360" y="104" width="136" height="42" rx="21" fill="#f4dfb5"/>
  <text x="388" y="132" fill="#26383f" font-family="ui-sans-serif, system-ui" font-size="17" font-weight="900">Context</text>
  <g fill="#dcefe8">
    <rect x="112" y="188" width="112" height="20" rx="10"/>
    <rect x="112" y="224" width="172" height="20" rx="10"/>
    <rect x="112" y="260" width="132" height="20" rx="10"/>
    <rect x="112" y="296" width="192" height="20" rx="10"/>
  </g>
  <rect x="382" y="184" width="188" height="150" rx="22" fill="#213139"/>
  <path d="M416 226h106M416 260h74M416 294h128" stroke="#f8fbf9" stroke-width="10" stroke-linecap="round"/>
  <rect x="400" y="348" width="138" height="32" rx="16" fill="#2a8f82"/>
  <text x="422" y="370" fill="#fff" font-family="ui-sans-serif, system-ui" font-size="15" font-weight="900">show more</text>
</svg>
